<?xml version="1.0" encoding="utf-8"?>
<!-- Generator: Adobe Illustrator 25.4.2, SVG Export Plug-In . SVG Version: 6.00 Build 0)  -->
<svg version="1.1" id="Ebene_1" xmlns="http://www.w3.org/2000/svg" xmlns:xlink="http://www.w3.org/1999/xlink" x="0px" y="0px"
	 viewBox="0 0 256.7 75.2" style="enable-background:new 0 0 256.7 75.2;" xml:space="preserve">
<style type="text/css">
	.st0{fill:#016BB2;}
</style>
<g>
	<path d="M13,42.8v5c-0.4,0-1.8,0.1-4.1,0.1c-1.6,0-2.8-0.1-3.7-0.4c-0.9-0.3-1.5-0.8-2-1.5c-0.4-0.7-0.6-1.8-0.6-3.2v-8.8h-2.7
		v-4.2h2.7v-4.9h7v4.9H13v4.2H9.5v7.2c0,0.7,0.2,1.2,0.5,1.4c0.3,0.2,0.9,0.3,1.8,0.3H13z"/>
	<path d="M31.7,45c-0.7,0.9-1.8,1.7-3.2,2.3c-1.4,0.6-3.1,0.9-5.1,0.9c-3.2,0-5.6-0.8-7.4-2.5c-1.7-1.6-2.6-4-2.6-6.9
		c0-3,0.9-5.3,2.6-7c1.7-1.7,4.2-2.5,7.4-2.5c3.1,0,5.5,0.8,7.3,2.5c1.8,1.6,2.6,4.1,2.6,7.3c0,0.5,0,0.8,0,1H20.6
		c0,1.2,0.3,2.2,0.8,2.8c0.5,0.7,1.2,1,2,1c0.8,0,1.4-0.2,1.8-0.5c0.4-0.4,0.6-0.8,0.7-1.4l7.2,0.3C32.9,43.2,32.5,44.1,31.7,45z
		 M21.4,34.2c-0.5,0.5-0.8,1.2-0.8,2.1h5.5c0-0.9-0.3-1.6-0.8-2.1c-0.5-0.5-1.2-0.8-2-0.8C22.6,33.4,21.9,33.7,21.4,34.2z"/>
	<path d="M46.1,45C45.7,46,45,46.8,44,47.3c-1,0.6-2.2,0.9-3.7,0.9c-1,0-2-0.2-2.9-0.6c-0.9-0.4-1.7-1-2.2-1.8
		c-0.6-0.8-0.9-1.7-0.9-2.8c0-1.8,0.6-3.2,1.8-4.1c1.2-0.9,3-1.5,5.3-1.9c1.3-0.2,2.3-0.4,2.9-0.6c0.7-0.2,1.1-0.4,1.4-0.6
		c0.3-0.2,0.4-0.5,0.4-0.8c0-0.5-0.2-0.8-0.6-1s-0.9-0.4-1.5-0.4c-1.3,0-2.1,0.7-2.6,2.1L35,35.2c0.4-1.9,1.4-3.3,3-4.3
		c1.6-1,3.7-1.5,6.2-1.5c2.9,0,5.1,0.5,6.6,1.6c1.5,1.1,2.3,2.7,2.3,4.8v8.8c0,0.9,0,1.6,0.1,2.1c0.1,0.5,0.2,0.8,0.4,1.1h-7
		C46.3,47.4,46.1,46.5,46.1,45z M43.6,40.2c-1.5,0.3-2.2,1-2.2,2.1c0,0.5,0.2,0.9,0.5,1.3c0.3,0.3,0.8,0.5,1.3,0.5
		c0.7,0,1.4-0.3,2-0.8c0.6-0.5,0.9-1.3,0.9-2.3v-1.4C45.7,39.7,44.9,39.9,43.6,40.2z"/>
	<path d="M83.1,31c1.1,1.1,1.6,2.8,1.6,5v11.7h-7V37.6c0-1.9-0.7-2.8-2.1-2.8c-0.7,0-1.3,0.3-1.8,0.8c-0.5,0.5-0.7,1.4-0.7,2.5v9.6
		h-7V37.6c0-1-0.2-1.7-0.5-2.1c-0.4-0.4-0.9-0.7-1.6-0.7c-0.7,0-1.3,0.3-1.8,0.8c-0.5,0.6-0.7,1.4-0.7,2.5v9.6h-7v-18h6.7v2.5h0.1
		c0.6-0.8,1.4-1.5,2.2-2.1c0.9-0.6,2-0.8,3.5-0.8c2.6,0,4.4,1,5.3,3.1c0.8-0.9,1.7-1.7,2.6-2.2c0.9-0.6,2.1-0.8,3.6-0.8
		C80.5,29.3,82,29.9,83.1,31z"/>
</g>
<g>
	<path d="M166.8,49h-7V24.5h7v13l5.1-6.5h7.4l-6.2,7l6.9,11h-7.9l-3.6-6.3l-1.8,2.1V49z"/>
	<path d="M195.6,33.1c1.7,1.7,2.6,4,2.6,7c0,3-0.9,5.3-2.6,6.9c-1.7,1.6-4.2,2.5-7.4,2.5c-3.2,0-5.7-0.8-7.4-2.5
		c-1.7-1.6-2.6-4-2.6-6.9c0-3,0.9-5.3,2.6-7c1.7-1.7,4.2-2.5,7.4-2.5C191.4,30.6,193.8,31.4,195.6,33.1z M187.2,24.5v4.6h-5.8v-4.6
		H187.2z M190.3,43.6c0.5-0.7,0.7-1.8,0.7-3.5s-0.2-2.9-0.7-3.6c-0.5-0.7-1.2-1-2.2-1c-0.9,0-1.7,0.3-2.2,1
		c-0.5,0.7-0.7,1.9-0.7,3.6s0.2,2.8,0.7,3.5c0.5,0.7,1.2,1,2.2,1C189.1,44.6,189.9,44.2,190.3,43.6z M194.9,24.5v4.6h-5.8v-4.6
		H194.9z"/>
	<path d="M206.5,24.5V49h-7V24.5H206.5z"/>
	<path d="M214.8,33.5c1.4-1.9,3.4-2.9,5.9-2.9c2,0,3.5,0.6,4.6,1.7c1.1,1.1,1.7,2.8,1.7,5V49h-7V38.8c0-1-0.2-1.7-0.6-2.1
		c-0.4-0.4-1-0.7-1.7-0.7c-0.8,0-1.5,0.3-2,0.8c-0.5,0.6-0.7,1.4-0.7,2.5V49h-7V31h6.7v2.5H214.8z"/>
</g>
<g>
	<path d="M234.1,48.9v-0.7c-0.5,0.6-1.2,0.9-2.1,0.9c-0.7,0-1.3-0.1-1.8-0.4c-0.5-0.3-0.9-0.7-1.2-1.2c-0.3-0.5-0.4-1.2-0.4-1.9
		c0-0.7,0.2-1.4,0.4-1.9c0.3-0.5,0.7-0.9,1.2-1.2c0.5-0.3,1.1-0.4,1.8-0.4c0.6,0,1.1,0.1,1.5,0.3c0.4,0.2,0.8,0.5,1.1,0.8
		c0.3,0.3,0.5,0.7,0.6,1.1l-2.1,0.3c-0.2-0.6-0.6-0.8-1.2-0.8c-0.4,0-0.7,0.1-1,0.4c-0.3,0.3-0.4,0.8-0.4,1.5c0,0.7,0.1,1.2,0.4,1.5
		c0.3,0.3,0.6,0.4,1,0.4c0.3,0,0.6-0.1,0.8-0.2c0.2-0.1,0.4-0.4,0.6-0.7h-1.3v-1.4h3.3v3.7H234.1z"/>
	<path d="M243.7,44.3c0.3,0.3,0.4,0.8,0.4,1.4v3.2h-1.9v-2.8c0-0.5-0.2-0.8-0.6-0.8c-0.2,0-0.4,0.1-0.5,0.2
		c-0.1,0.1-0.2,0.4-0.2,0.7v2.7H239v-2.8c0-0.3-0.1-0.5-0.1-0.6c-0.1-0.1-0.2-0.2-0.4-0.2c-0.2,0-0.4,0.1-0.5,0.2
		c-0.1,0.2-0.2,0.4-0.2,0.7v2.7h-1.9v-5h1.9v0.7h0c0.2-0.2,0.4-0.4,0.6-0.6c0.2-0.2,0.6-0.2,1-0.2c0.7,0,1.2,0.3,1.5,0.9
		c0.2-0.3,0.5-0.5,0.7-0.6c0.3-0.2,0.6-0.2,1-0.2C243,43.8,243.4,44,243.7,44.3z"/>
	<path d="M249.1,44.2c0.3,0.2,0.5,0.5,0.7,0.9c0.2,0.4,0.3,0.9,0.3,1.4c0,0.5-0.1,1-0.3,1.4c-0.2,0.4-0.4,0.7-0.7,0.9
		c-0.3,0.2-0.7,0.3-1.1,0.3c-0.7,0-1.2-0.3-1.5-0.8h0v0.7h-1.9v-6.8h1.9v2.4h0c0.3-0.5,0.8-0.7,1.5-0.7
		C248.4,43.8,248.8,43.9,249.1,44.2z M247.9,47.4c0.1-0.2,0.2-0.5,0.2-0.9c0-0.4-0.1-0.7-0.2-0.9c-0.1-0.2-0.3-0.3-0.6-0.3
		s-0.5,0.1-0.6,0.3c-0.1,0.2-0.2,0.5-0.2,0.9c0,0.4,0.1,0.7,0.2,0.9c0.1,0.2,0.3,0.3,0.6,0.3S247.7,47.6,247.9,47.4z"/>
	<path d="M256.7,48.9h-2.1v-2.6h-2.2v2.6h-2.1v-6.7h2.1v2.5h2.2v-2.5h2.1V48.9z"/>
</g>
<g>
	<path class="st0" d="M115.9,32c-1.8,0-3.3,0.7-4.5,2.1c-1.1,1.4-1.7,3.3-1.7,5.7c0,2.4,0.6,4.3,1.7,5.7c1.1,1.4,2.6,2.1,4.5,2.1
		c1.8,0,3.3-0.7,4.5-2.1c1.1-1.4,1.7-3.3,1.7-5.7c0-2.4-0.6-4.3-1.7-5.7C119.2,32.7,117.8,32,115.9,32z"/>
	<path class="st0" d="M156.4,49.1c-1.2,0-2.1-0.1-2.7-0.4c-0.6-0.2-1.1-0.7-1.4-1.3c-0.3-0.6-0.4-1.4-0.4-2.5V32.3h-3.2v-1.8h3.2V25
		h2.3v5.4h4.5v1.8h-4.5v12.2c0,1,0.2,1.7,0.5,2c0.3,0.4,1,0.5,1.9,0.5c0.8,0,1.5,0,2-0.1l0.2,0c0.9-3.2,1.2-5.9,1.2-9.4
		c0-20.8-16.8-37.6-37.6-37.6S84.7,16.8,84.7,37.6c0,5.9,1.4,11.5,3.8,16.4V30.5h2.2v3.3h0.1c0.5-1.1,1.3-2,2.5-2.7
		c1.2-0.7,2.5-1,3.9-1c1.6,0,3,0.4,4.3,1.2c1.3,0.8,2.2,1.9,2.9,3.4c0.7,1.5,1,3.2,1,5.1c0,2-0.3,3.7-1,5.1
		c-0.7,1.5-1.7,2.6-2.9,3.4c-1.3,0.8-2.7,1.2-4.3,1.2c-1.4,0-2.7-0.3-3.8-1c-1.1-0.7-2-1.5-2.5-2.6h-0.1v9.7h-1.6
		c6.4,11.7,18.8,19.7,33.1,19.7c16.8,0,31-11,35.8-26.2C157.6,49.1,157,49.1,156.4,49.1z M123.4,44.9c-0.7,1.5-1.7,2.6-3,3.4
		c-1.3,0.8-2.8,1.2-4.5,1.2c-1.7,0-3.2-0.4-4.5-1.2c-1.3-0.8-2.3-1.9-3-3.4c-0.7-1.5-1.1-3.2-1.1-5.1c0-2,0.4-3.7,1.1-5.1
		c0.7-1.5,1.7-2.6,3-3.4c1.3-0.8,2.8-1.2,4.5-1.2c1.7,0,3.2,0.4,4.5,1.2c1.3,0.8,2.3,1.9,3,3.4c0.7,1.5,1.1,3.2,1.1,5.1
		C124.5,41.7,124.2,43.4,123.4,44.9z M129.4,49.1H127V30.5h2.3V49.1z M129.4,26.2h-2.5v-2.9h2.5V26.2z M147.3,49.1H145V37.6
		c0-1.9-0.4-3.3-1.1-4.2c-0.7-0.9-1.9-1.3-3.6-1.3c-1.6,0-2.9,0.5-3.9,1.6c-1.1,1.1-1.6,2.7-1.6,5v10.5h-2.3V30.5h2.2v2.8h0.1
		c0.5-0.9,1.3-1.7,2.3-2.3c1.1-0.6,2.3-0.9,3.7-0.9c2,0,3.6,0.6,4.8,1.7c1.2,1.1,1.8,2.7,1.8,4.8V49.1z"/>
	<path class="st0" d="M93.6,46.5c0.9,0.6,2,0.9,3.2,0.9c1.9,0,3.4-0.7,4.6-2.1c1.1-1.4,1.7-3.3,1.7-5.7c0-2.4-0.6-4.3-1.7-5.7
		c-1.1-1.4-2.7-2.1-4.6-2.1c-1.2,0-2.2,0.3-3.2,0.9c-0.9,0.6-1.7,1.5-2.2,2.7c-0.5,1.2-0.8,2.5-0.8,4.1c0,1.6,0.3,3,0.8,4.1
		C91.9,45,92.7,45.9,93.6,46.5z"/>
</g>
</svg>
